# Blender v2.79 (sub 0) OBJ File: ''
# www.blender.org
o Circle.001
v 0.086991 0.277306 0.045106
v 0.112150 0.280333 0.024191
v 0.070054 0.282684 0.026992
v 0.066331 0.281680 -0.033038
v 0.111009 0.279184 -0.036212
v 0.044661 0.256180 -0.351510
v 0.108703 0.269814 -0.133690
v 0.103721 0.252884 -0.355533
v 0.022659 0.246711 0.071321
v -0.051227 0.242044 0.144235
v 0.037736 0.254032 0.091418
v -0.080931 0.214267 0.131451
v -0.096287 0.248616 0.193553
v -0.152294 0.228402 0.248047
v -0.112583 0.254429 0.252300
v -0.151800 0.238408 0.361686
v -0.111989 0.263676 0.362785
v -0.106925 0.247371 0.490557
v -0.071147 0.272015 0.488312
v -0.050571 0.250678 0.562363
v -0.021128 0.275066 0.556726
v 0.050793 0.275592 0.609195
v 0.120952 0.247837 0.634725
v 0.122291 0.272870 0.622680
v 0.032703 0.251182 0.618848
v 0.025919 0.236679 -0.569520
v 0.098597 0.232620 -0.573871
v 0.011294 0.226683 -0.684821
v 0.095886 0.221954 -0.689463
v 0.092797 0.212489 -0.830741
v -0.015624 0.218548 -0.825522
v 0.091086 0.213945 -0.932326
v -0.030951 0.220766 -0.926777
v -0.031416 0.228580 -0.980492
v 0.090621 0.221758 -0.986038
v -0.007671 0.237241 -1.020772
v 0.090537 0.231754 -1.025742
v 0.034922 0.244527 -1.053332
v 0.090579 0.241419 -1.057271
v 0.059855 0.272542 -0.129914
v 0.065778 0.230622 0.608986
v -0.009331 0.210483 -1.020762
v -0.033488 0.195182 -0.980480
v -0.082061 0.130712 0.183604
v -0.011053 0.183490 0.114499
v 0.068594 0.260549 0.022216
v 0.042430 0.220203 -0.351497
v 0.023459 0.197014 -0.569506
v -0.013364 0.203723 0.533126
v -0.110313 0.113405 0.246903
v -0.133416 0.221815 0.184947
v 0.008778 0.186097 -0.684806
v -0.018189 0.177188 -0.825510
v -0.117042 0.128255 0.360722
v -0.033515 0.179407 -0.926763
v 0.058194 0.245783 -0.129906
v 0.033572 0.223304 -1.055236
v -0.062863 0.173389 0.463379
v 0.064669 0.254919 -0.033029
v 0.033494 0.227435 0.071038
v 0.088595 0.188353 -0.983436
v 0.088922 0.204984 -1.023142
v 0.101534 0.216896 -0.352929
v 0.107089 0.243046 -0.131088
v 0.089272 0.220188 -1.056587
v 0.096183 0.192946 -0.571266
v 0.109388 0.252415 -0.034111
v 0.093416 0.181361 -0.686857
v 0.090278 0.171118 -0.828136
v 0.109084 0.218040 0.069201
v 0.088568 0.172576 -0.929720
v 0.103025 0.072455 0.236812
v 0.103105 0.091656 0.174213
v 0.105403 0.147957 0.106757
v 0.105961 0.087352 0.350367
v 0.110603 0.134183 0.448426
v 0.114033 0.167580 0.525119
v 0.119239 0.222082 0.628149
v 0.116170 0.197519 0.540901
v 0.058106 0.195167 0.528589
v 0.035544 0.141429 0.159680
v -0.023652 0.145980 0.193432
v -0.062191 0.161572 0.247686
v 0.105238 0.133078 0.149579
v 0.111299 0.249458 0.084194
v -0.081485 0.168620 0.284305
v -0.062009 0.180153 0.430752
v -0.004114 0.187671 0.495661
v 0.112281 0.277023 0.043105
v 0.065940 0.118695 0.231196
v 0.054340 0.114056 0.264976
v 0.048361 0.118001 0.307939
v -0.080207 0.171278 0.375063
v 0.049962 0.126760 0.359794
v 0.056948 0.141761 0.406383
v 0.075132 0.156613 0.446715
v 0.112977 0.165717 0.472128
v 0.089419 0.167435 0.470850
v 0.078090 0.119779 0.210839
v 0.105300 0.116936 0.209590
v 0.108184 0.121330 0.356906
v 0.106769 0.112925 0.306407
v 0.109957 0.136547 0.403758
v 0.111621 0.152201 0.442943
v 0.105810 0.108957 0.266257
v 0.105502 0.113476 0.233122
v 0.137479 0.274482 0.043884
v 0.154310 0.277969 0.024951
v 0.155763 0.276675 -0.035205
v 0.162872 0.249568 -0.354374
v 0.157643 0.267071 -0.132284
v 0.198458 0.236874 0.067063
v 0.185112 0.245786 0.087848
v 0.273769 0.223862 0.136365
v 0.321029 0.225268 0.183444
v 0.299355 0.192991 0.122240
v 0.376027 0.198841 0.235250
v 0.354255 0.194530 0.173136
v 0.339990 0.229107 0.241339
v 0.380785 0.208609 0.348788
v 0.344444 0.238138 0.351727
v 0.341915 0.222257 0.479686
v 0.309380 0.250724 0.479097
v 0.288942 0.231680 0.554142
v 0.193097 0.267631 0.605749
v 0.208370 0.241354 0.614591
v 0.262541 0.259194 0.549856
v 0.171364 0.228541 -0.573042
v 0.180570 0.217211 -0.688922
v 0.201309 0.206411 -0.830778
v 0.213217 0.207106 -0.932691
v 0.212749 0.214919 -0.986405
v 0.188836 0.226247 -1.025531
v 0.146325 0.238294 -1.056031
v 0.172661 0.224642 0.606398
v 0.187177 0.199489 -1.025520
v 0.210676 0.181522 -0.986392
v 0.291993 0.109784 0.174544
v 0.152854 0.255834 0.020176
v 0.160641 0.213589 -0.354360
v 0.245189 0.189257 0.526863
v 0.320119 0.089321 0.236476
v 0.178053 0.176626 -0.688907
v 0.332649 0.103095 0.349831
v 0.210650 0.165744 -0.932675
v 0.155982 0.240311 -0.132273
v 0.144973 0.217071 -1.057935
v 0.288092 0.153753 0.454878
v 0.154105 0.249915 -0.035194
v 0.168905 0.188876 -0.573028
v 0.225620 0.170247 0.108767
v 0.198743 0.165051 -0.830762
v 0.110725 0.258192 0.021194
v 0.185316 0.218942 0.067361
v 0.173057 0.188735 0.525803
v 0.175783 0.133583 0.156283
v 0.236271 0.131436 0.187135
v 0.278351 0.142518 0.239437
v 0.299661 0.147293 0.275073
v 0.301925 0.149897 0.365807
v 0.286928 0.160629 0.422299
v 0.232703 0.174423 0.489924
v 0.145337 0.114252 0.229273
v 0.165401 0.111453 0.305101
v 0.157466 0.108285 0.262478
v 0.163291 0.135812 0.403807
v 0.166727 0.120228 0.356965
v 0.148510 0.152508 0.444938
v 0.136521 0.164800 0.469711
v 0.132700 0.116726 0.209516
vt 0.498900 0.018700
vt 0.513200 0.000200
vt 0.488300 0.002600
vt 0.909500 0.810000
vt 0.933800 0.856000
vt 0.933800 0.808300
vt 0.901800 0.557900
vt 0.933800 0.731200
vt 0.933800 0.555900
vt 0.458800 0.045400
vt 0.415000 0.114800
vt 0.470100 0.062800
vt 0.390800 0.099800
vt 0.387800 0.160900
vt 0.348500 0.206300
vt 0.376600 0.212200
vt 0.350500 0.305900
vt 0.378000 0.306000
vt 0.388000 0.413400
vt 0.412500 0.407600
vt 0.430200 0.471200
vt 0.450300 0.460700
vt 0.497500 0.497700
vt 0.538400 0.523500
vt 0.537500 0.505500
vt 0.485800 0.513000
vt 0.894400 0.385200
vt 0.933800 0.383200
vt 0.887900 0.293800
vt 0.933800 0.291700
vt 0.933800 0.180100
vt 0.875000 0.182200
vt 0.933800 0.099900
vt 0.867700 0.102000
vt 0.867700 0.059400
vt 0.933800 0.057400
vt 0.880600 0.027600
vt 0.933800 0.025600
vt 0.903600 0.002200
vt 0.933800 0.000200
vt 0.907300 0.733300
vt 0.205000 0.515900
vt 0.174200 0.539900
vt 0.225200 0.528100
vt 0.860300 0.063300
vt 0.835300 0.041200
vt 0.844600 0.070400
vt 0.269100 0.173000
vt 0.289800 0.112100
vt 0.242000 0.105900
vt 0.199900 0.008500
vt 0.232900 0.049300
vt 0.211600 0.000200
vt 0.819000 0.569000
vt 0.848800 0.393800
vt 0.826700 0.391000
vt 0.249000 0.449000
vt 0.279000 0.220400
vt 0.327700 0.157800
vt 0.833000 0.296900
vt 0.865900 0.185800
vt 0.843000 0.184000
vt 0.286500 0.300200
vt 0.346800 0.213200
vt 0.867300 0.105300
vt 0.845400 0.108100
vt 0.813400 0.750400
vt 0.839100 0.571400
vt 0.846000 0.032400
vt 0.816800 0.012500
vt 0.272000 0.386400
vt 0.348100 0.311800
vt 0.811000 0.829400
vt 0.828400 0.752000
vt 0.855400 0.300000
vt 0.825900 0.831000
vt 0.809500 0.874400
vt 0.821500 0.879600
vt 0.314300 0.420700
vt 0.221400 0.056700
vt 0.786100 0.069900
vt 0.786100 0.038900
vt 0.786100 0.569000
vt 0.786100 0.750400
vt 0.786100 0.012000
vt 0.786100 0.391000
vt 0.786100 0.829400
vt 0.786100 0.297000
vt 0.786100 0.185100
vt 0.174100 0.058100
vt 0.786100 0.109700
vt 0.174100 0.215200
vt 0.174100 0.168400
vt 0.174100 0.109100
vt 0.174100 0.298400
vt 0.174200 0.376100
vt 0.174200 0.440300
vt 0.174200 0.524500
vt 0.533900 0.430800
vt 0.503100 0.421100
vt 0.485100 0.147300
vt 0.457100 0.172300
vt 0.435500 0.211700
vt 0.519900 0.140200
vt 0.515900 0.056600
vt 0.426600 0.239300
vt 0.441700 0.346300
vt 0.471000 0.394900
vt 0.513900 0.016700
vt 0.503100 0.199100
vt 0.498600 0.223500
vt 0.496700 0.254400
vt 0.432700 0.305300
vt 0.498600 0.291500
vt 0.502400 0.325800
vt 0.511700 0.356500
vt 0.531300 0.376200
vt 0.519100 0.375500
vt 0.508500 0.184300
vt 0.522000 0.183300
vt 0.527100 0.289000
vt 0.525300 0.252800
vt 0.528700 0.323600
vt 0.530200 0.353300
vt 0.523900 0.224100
vt 0.522800 0.200300
vt 0.786100 0.000200
vt 0.817000 0.000600
vt 0.529200 0.017200
vt 0.538100 0.000200
vt 0.958000 0.810000
vt 0.956600 0.857400
vt 0.965800 0.557900
vt 0.960200 0.733300
vt 0.571700 0.040000
vt 0.562000 0.058400
vt 0.621900 0.104900
vt 0.653400 0.148100
vt 0.644500 0.087600
vt 0.696900 0.189500
vt 0.679500 0.134500
vt 0.669400 0.198100
vt 0.704500 0.288900
vt 0.677100 0.291600
vt 0.677500 0.399500
vt 0.652500 0.396000
vt 0.641100 0.461000
vt 0.576600 0.493900
vt 0.589700 0.508000
vt 0.620000 0.452500
vt 0.973100 0.385200
vt 0.979600 0.293800
vt 0.992500 0.182200
vt 0.999800 0.102000
vt 0.999800 0.059400
vt 0.986900 0.027600
vt 0.963900 0.002200
vt 0.143300 0.515900
vt 0.123100 0.528100
vt 0.736800 0.041200
vt 0.711900 0.063300
vt 0.727600 0.070400
vt 0.079100 0.173000
vt 0.058500 0.112100
vt 0.020600 0.157800
vt 0.115300 0.049300
vt 0.148400 0.008500
vt 0.136600 0.000200
vt 0.753100 0.569000
vt 0.723400 0.393800
vt 0.733100 0.571400
vt 0.099300 0.449000
vt 0.069300 0.220400
vt 0.001400 0.213200
vt 0.739100 0.296900
vt 0.706200 0.185800
vt 0.716700 0.300000
vt 0.061800 0.300200
vt 0.000200 0.311900
vt 0.704800 0.105300
vt 0.726700 0.108100
vt 0.758700 0.750400
vt 0.743700 0.752000
vt 0.755400 0.012500
vt 0.726100 0.032400
vt 0.076300 0.386400
vt 0.034000 0.420800
vt 0.761200 0.829400
vt 0.746300 0.831000
vt 0.745500 0.391000
vt 0.762600 0.874400
vt 0.071400 0.481400
vt 0.106200 0.105900
vt 0.729100 0.184000
vt 0.174100 0.008600
vt 0.126900 0.056700
vt 0.563700 0.418200
vt 0.555200 0.143900
vt 0.585500 0.166100
vt 0.610700 0.203300
vt 0.622300 0.229900
vt 0.622600 0.296200
vt 0.617600 0.337800
vt 0.593100 0.389000
vt 0.542300 0.197200
vt 0.554000 0.251600
vt 0.549100 0.221100
vt 0.555200 0.323300
vt 0.555700 0.288800
vt 0.548900 0.354700
vt 0.543400 0.374300
vt 0.535500 0.183000
vt 0.755100 0.000600
vt 0.910900 0.857400
vt 0.360500 0.149900
vt 0.276900 0.481400
vt 0.825600 0.005100
vt 0.786100 0.874400
vt 0.746500 0.005100
vt 0.750600 0.879600
vn -0.0210 0.9207 0.3897
vn 0.0577 0.9947 0.0846
vn -0.5133 0.8574 0.0375
vn -0.6571 0.7538 0.0017
vn 0.0543 0.9967 -0.0597
vn -0.6630 0.7486 -0.0103
vn 0.0536 0.9948 -0.0866
vn 0.0536 0.9949 -0.0855
vn -0.6528 0.4384 -0.6178
vn 0.0224 0.9924 0.1214
vn -0.0436 0.8885 0.4568
vn -0.6068 0.1191 -0.7859
vn 0.1397 0.9875 -0.0724
vn -0.9385 0.3047 -0.1622
vn 0.2269 0.9734 -0.0328
vn -0.9360 0.3045 0.1766
vn 0.2530 0.9631 -0.0921
vn -0.8662 0.1463 0.4779
vn 0.1103 0.9851 -0.1318
vn -0.7076 0.0235 0.7062
vn -0.0174 0.9998 -0.0043
vn -0.0379 0.9754 0.2172
vn 0.0262 0.0457 0.9986
vn 0.0613 0.9570 0.2835
vn -0.4236 -0.0830 0.9020
vn -0.6614 0.7500 0.0034
vn 0.0534 0.9942 -0.0931
vn -0.6573 0.7520 0.0493
vn 0.0538 0.9953 -0.0802
vn 0.0552 0.9981 -0.0266
vn -0.6695 0.7355 0.1039
vn 0.0576 0.9952 0.0793
vn -0.6893 0.7155 0.1135
vn -0.7109 0.6964 -0.0978
vn 0.0595 0.9791 0.1947
vn -0.5573 0.7521 -0.3518
vn 0.0603 0.9609 0.2702
vn -0.2373 0.7918 -0.5628
vn 0.0294 0.7910 -0.6112
vn -0.6694 0.7427 -0.0172
vn -0.2460 -0.7282 0.6397
vn -0.5628 -0.5118 -0.6491
vn -0.7495 -0.5626 -0.3490
vn -0.4671 -0.6834 -0.5611
vn -0.3051 -0.5408 -0.7839
vn -0.6935 -0.5646 -0.4476
vn -0.7388 -0.6609 0.1320
vn -0.7335 -0.6638 0.1461
vn -0.3425 -0.7726 0.5346
vn -0.6217 -0.7673 -0.1571
vn -0.8272 0.2411 -0.5075
vn -0.7235 -0.6694 0.1686
vn -0.7304 -0.6694 0.1359
vn -0.6453 -0.7007 0.3044
vn -0.7372 -0.6740 -0.0482
vn -0.7445 -0.6567 0.1205
vn -0.2920 -0.4219 -0.8583
vn -0.4619 -0.7205 0.5172
vn -0.7424 -0.6599 0.1158
vn -0.3754 -0.4829 -0.7911
vn -0.0607 -0.9405 -0.3342
vn -0.0609 -0.9146 -0.3999
vn -0.0527 -0.9921 0.1142
vn -0.0529 -0.9928 0.1077
vn -0.0511 -0.5528 -0.8317
vn -0.0530 -0.9930 0.1055
vn -0.0531 -0.9935 0.1011
vn -0.0535 -0.9948 0.0871
vn -0.0551 -0.9980 0.0300
vn -0.0541 -0.6322 -0.7730
vn -0.0588 -0.9871 -0.1487
vn -0.0581 -0.9943 -0.0897
vn -0.0607 -0.8704 -0.4885
vn -0.0549 -0.6639 -0.7458
vn -0.0470 -0.9580 0.2829
vn -0.0401 -0.9010 0.4319
vn -0.0396 -0.8941 0.4460
vn -0.0153 -0.5918 0.8059
vn 0.0313 0.8112 -0.5840
vn 0.1846 0.7958 -0.5767
vn 0.2773 0.7569 0.5918
vn 0.4921 0.7880 0.3700
vn 0.6282 0.7532 0.1951
vn 0.0589 0.7834 0.6188
vn 0.0559 0.6884 0.7232
vn 0.7316 0.6763 0.0856
vn 0.6185 0.6773 -0.3984
vn 0.3771 0.7545 -0.5372
vn 0.0607 0.9293 0.3643
vn 0.1991 0.9673 0.1572
vn 0.2347 0.9696 0.0695
vn 0.2257 0.9691 -0.0996
vn 0.7074 0.6787 -0.1976
vn 0.1874 0.9513 -0.2446
vn 0.1617 0.9213 -0.3537
vn 0.1076 0.9094 -0.4017
vn 0.0409 0.9098 -0.4130
vn 0.0818 0.9055 -0.4164
vn 0.1524 0.9678 0.2002
vn 0.0596 0.9774 0.2027
vn 0.0485 0.9702 -0.2375
vn 0.0523 0.9904 -0.1279
vn 0.0442 0.9387 -0.3420
vn 0.0415 0.9156 -0.4000
vn 0.0564 0.9982 0.0212
vn 0.0586 0.9890 0.1359
vn 0.1427 0.9114 0.3860
vn 0.6106 0.7918 0.0155
vn 0.7405 0.6716 -0.0233
vn 0.7452 0.6659 -0.0354
vn 0.7506 0.6593 -0.0425
vn 0.6726 0.3603 -0.6464
vn 0.1641 0.8766 0.4524
vn 0.0966 0.9885 0.1161
vn -0.0263 0.9970 -0.0722
vn 0.5822 0.0480 -0.8116
vn 0.9613 0.1922 -0.1976
vn 0.8288 0.1428 -0.5410
vn -0.1116 0.9934 -0.0276
vn 0.9713 0.1920 0.1406
vn -0.1406 0.9866 -0.0831
vn 0.8956 0.0435 0.4427
vn -0.0006 0.9920 -0.1259
vn 0.7347 -0.0613 0.6756
vn 0.1580 0.9640 0.2138
vn 0.4515 -0.1354 0.8819
vn 0.1309 0.9914 -0.0042
vn 0.7443 0.6675 -0.0216
vn 0.7421 0.6699 0.0247
vn 0.7544 0.6517 0.0792
vn 0.7725 0.6289 0.0884
vn 0.7846 0.6071 -0.1255
vn 0.6268 0.6815 -0.3776
vn 0.3006 0.7599 -0.5763
vn 0.1929 -0.7526 0.6295
vn 0.4724 -0.5738 -0.6690
vn 0.6640 -0.6473 -0.3742
vn 0.3601 -0.7335 -0.5764
vn 0.6036 -0.6444 -0.4695
vn 0.6608 -0.7430 0.1064
vn 0.2775 -0.8073 0.5208
vn 0.5212 -0.8347 -0.1779
vn 0.6459 -0.7499 0.1431
vn 0.5712 -0.7714 0.2804
vn 0.6499 -0.7565 -0.0735
vn 0.6664 -0.7395 0.0948
vn 0.2020 -0.4508 -0.8695
vn 0.3988 -0.7695 0.4988
vn 0.6638 -0.7425 0.0902
vn 0.6557 -0.7454 0.1205
vn 0.2049 -0.5727 -0.7937
vn 0.6513 -0.7508 0.1102
vn -0.0605 -0.9547 -0.2914
vn 0.2810 -0.5248 -0.8035
vn -0.1215 0.8130 -0.5694
vn -0.1617 0.7834 0.6001
vn -0.3817 0.8398 0.3861
vn -0.5280 0.8215 0.2152
vn -0.6436 0.7574 0.1100
vn -0.6307 0.7566 -0.1723
vn -0.5517 0.7452 -0.3745
vn -0.3130 0.7938 -0.5215
vn -0.0822 0.9833 0.1622
vn -0.1201 0.9884 -0.0934
vn -0.1211 0.9898 0.0757
vn -0.0745 0.9342 -0.3489
vn -0.0913 0.9667 -0.2392
vn -0.0246 0.9167 -0.3989
vn -0.0003 0.9100 -0.4147
vn -0.0336 0.9785 0.2035
s 1
f 1/1/1 2/2/2 3/3/3
f 4/4/4 2/5/2 5/6/5
f 6/7/6 7/8/7 8/9/8
f 9/10/9 1/1/1 3/3/3
f 9/10/9 10/11/10 11/12/11
f 12/13/12 13/14/13 10/11/10
f 13/14/13 14/15/14 15/16/15
f 15/16/15 16/17/16 17/18/17
f 17/18/17 18/19/18 19/20/19
f 19/20/19 20/21/20 21/22/21
f 22/23/22 23/24/23 24/25/24
f 21/22/21 25/26/25 22/23/22
f 26/27/26 8/9/8 27/28/27
f 28/29/28 27/28/27 29/30/29
f 28/29/28 30/31/30 31/32/31
f 31/32/31 32/33/32 33/34/33
f 34/35/34 32/33/32 35/36/35
f 36/37/36 35/36/35 37/38/37
f 38/39/38 37/38/37 39/40/39
f 40/41/40 5/6/5 7/8/7
f 41/42/41 23/43/23 25/44/25
f 34/45/34 42/46/42 43/47/43
f 44/48/44 12/49/12 45/50/45
f 46/51/46 9/52/9 3/53/3
f 47/54/47 26/55/26 48/56/48
f 25/44/25 49/57/49 41/42/41
f 50/58/50 51/59/51 44/48/44
f 52/60/52 31/61/31 53/62/53
f 54/63/54 14/64/14 50/58/50
f 33/65/33 43/47/43 55/66/55
f 56/67/56 6/68/6 47/54/47
f 36/69/36 57/70/57 42/46/42
f 58/71/58 16/72/16 54/63/54
f 59/73/59 40/74/40 56/67/56
f 48/56/48 28/75/28 52/60/52
f 4/76/4 46/77/46 3/78/3
f 49/57/49 18/79/18 58/71/58
f 45/50/45 9/52/9 60/80/60
f 31/61/31 55/66/55 53/62/53
f 61/81/61 42/46/42 62/82/62
f 56/67/56 63/83/63 64/84/64
f 62/82/62 57/70/57 65/85/65
f 47/54/47 66/86/66 63/83/63
f 67/87/67 46/77/46 59/73/59
f 48/56/48 68/88/68 66/86/66
f 52/60/52 69/89/69 68/88/68
f 46/51/46 70/90/70 60/80/60
f 53/62/53 71/91/71 69/89/69
f 59/73/59 64/84/64 67/87/67
f 71/91/71 43/47/43 61/81/61
f 72/92/72 44/48/44 73/93/73
f 60/80/60 74/94/74 45/50/45
f 75/95/75 50/58/50 72/92/72
f 49/57/49 76/96/76 77/97/77
f 58/71/58 75/95/75 76/96/76
f 73/93/73 45/50/45 74/94/74
f 41/42/41 77/97/77 78/98/78
f 22/23/22 79/99/79 80/100/80
f 10/11/10 81/101/81 11/12/11
f 80/100/80 21/22/21 22/23/22
f 13/14/13 82/102/82 10/11/10
f 15/16/15 83/103/83 13/14/13
f 11/12/11 84/104/84 85/105/85
f 17/18/17 86/106/86 15/16/15
f 87/107/87 17/18/17 19/20/19
f 88/108/88 19/20/19 21/22/21
f 1/1/1 85/105/85 89/109/89
f 90/110/90 83/103/83 91/111/91
f 83/103/83 92/112/92 91/111/91
f 92/112/92 93/113/93 94/114/94
f 93/113/93 95/115/95 94/114/94
f 87/107/87 96/116/96 95/115/95
f 80/100/80 97/117/97 98/118/98
f 88/108/88 98/118/98 96/116/96
f 84/104/84 99/119/99 100/120/100
f 92/112/92 101/121/101 102/122/102
f 94/114/94 103/123/103 101/121/101
f 96/116/96 103/123/103 95/115/95
f 98/118/98 104/124/104 96/116/96
f 91/111/91 102/122/102 105/125/105
f 90/110/90 105/125/105 106/126/106
f 99/119/99 106/126/106 100/120/100
f 99/119/99 82/102/82 90/110/90
f 39/127/39 57/70/57 38/128/38
f 2/2/2 107/129/107 108/130/108
f 109/131/109 2/5/2 108/132/108
f 110/133/110 7/8/7 111/134/111
f 112/135/112 107/129/107 113/136/113
f 114/137/114 112/135/112 113/136/113
f 115/138/115 116/139/116 114/137/114
f 115/138/115 117/140/117 118/141/118
f 119/142/119 120/143/120 117/140/117
f 121/144/121 122/145/122 120/143/120
f 123/146/123 124/147/124 122/145/122
f 125/148/125 23/24/23 126/149/126
f 127/150/127 126/149/126 124/147/124
f 128/151/128 8/9/8 110/133/110
f 129/152/129 27/28/27 128/151/128
f 30/31/30 129/152/129 130/153/130
f 32/33/32 130/153/130 131/154/131
f 132/155/132 32/33/32 131/154/131
f 133/156/133 35/36/35 132/155/132
f 134/157/134 37/38/37 133/156/133
f 111/134/111 5/6/5 109/131/109
f 23/43/23 135/158/135 126/159/126
f 136/160/136 132/161/132 137/162/137
f 138/163/138 116/164/116 118/165/118
f 112/166/112 139/167/139 108/168/108
f 140/169/140 128/170/128 110/171/110
f 141/172/141 126/159/126 135/158/135
f 142/173/142 118/165/118 117/174/117
f 143/175/143 130/176/130 129/177/129
f 144/178/144 117/174/117 120/179/120
f 137/162/137 131/180/131 145/181/145
f 146/182/146 110/171/110 111/183/111
f 147/184/147 133/185/133 136/160/136
f 148/186/148 120/179/120 122/187/122
f 149/188/149 111/183/111 109/189/109
f 150/190/150 129/177/129 128/170/128
f 109/189/109 139/191/139 149/188/149
f 141/172/141 122/187/122 124/192/124
f 151/193/151 112/166/112 116/164/116
f 145/181/145 130/176/130 152/194/152
f 61/81/61 136/160/136 137/162/137
f 63/83/63 146/182/146 64/84/64
f 62/82/62 147/184/147 136/160/136
f 66/86/66 140/169/140 63/83/63
f 139/191/139 67/87/67 149/188/149
f 68/88/68 150/190/150 66/86/66
f 69/89/69 143/175/143 68/88/68
f 139/167/139 70/90/70 153/195/153
f 71/91/71 152/194/152 69/89/69
f 64/84/64 149/188/149 67/87/67
f 61/81/61 145/181/145 71/91/71
f 72/92/72 138/163/138 142/173/142
f 74/94/74 154/196/154 151/193/151
f 75/95/75 142/173/142 144/178/144
f 76/96/76 141/172/141 77/97/77
f 75/95/75 148/186/148 76/96/76
f 73/93/73 151/193/151 138/163/138
f 77/97/77 135/158/135 78/98/78
f 79/99/79 125/148/125 155/197/155
f 114/137/114 156/198/156 157/199/157
f 127/150/127 155/197/155 125/148/125
f 115/138/115 157/199/157 158/200/158
f 119/142/119 158/200/158 159/201/159
f 113/136/113 84/104/84 156/198/156
f 121/144/121 159/201/159 160/202/160
f 121/144/121 161/203/161 123/146/123
f 123/146/123 162/204/162 127/150/127
f 107/129/107 85/105/85 113/136/113
f 163/205/163 158/200/158 157/199/157
f 164/206/164 158/200/158 165/207/165
f 164/206/164 160/202/160 159/201/159
f 166/208/166 160/202/160 167/209/167
f 168/210/168 161/203/161 166/208/166
f 97/117/97 155/197/155 169/211/169
f 169/211/169 162/204/162 168/210/168
f 170/212/170 84/104/84 100/120/100
f 164/206/164 101/121/101 167/209/167
f 167/209/167 103/123/103 166/208/166
f 103/123/103 168/210/168 166/208/166
f 104/124/104 169/211/169 168/210/168
f 165/207/165 102/122/102 164/206/164
f 163/205/163 105/125/105 165/207/165
f 170/212/170 106/126/106 163/205/163
f 170/212/170 157/199/157 156/198/156
f 147/184/147 39/127/39 134/213/134
f 1/1/1 89/109/89 2/2/2
f 4/4/4 3/214/3 2/5/2
f 6/7/6 40/41/40 7/8/7
f 9/10/9 11/12/11 1/1/1
f 9/10/9 12/13/12 10/11/10
f 12/13/12 51/215/51 13/14/13
f 13/14/13 51/215/51 14/15/14
f 15/16/15 14/15/14 16/17/16
f 17/18/17 16/17/16 18/19/18
f 19/20/19 18/19/18 20/21/20
f 22/23/22 25/26/25 23/24/23
f 21/22/21 20/21/20 25/26/25
f 26/27/26 6/7/6 8/9/8
f 28/29/28 26/27/26 27/28/27
f 28/29/28 29/30/29 30/31/30
f 31/32/31 30/31/30 32/33/32
f 34/35/34 33/34/33 32/33/32
f 36/37/36 34/35/34 35/36/35
f 38/39/38 36/37/36 37/38/37
f 40/41/40 4/4/4 5/6/5
f 41/42/41 78/98/78 23/43/23
f 34/45/34 36/69/36 42/46/42
f 44/48/44 51/59/51 12/49/12
f 46/51/46 60/80/60 9/52/9
f 47/54/47 6/68/6 26/55/26
f 25/44/25 20/216/20 49/57/49
f 50/58/50 14/64/14 51/59/51
f 52/60/52 28/75/28 31/61/31
f 54/63/54 16/72/16 14/64/14
f 33/65/33 34/45/34 43/47/43
f 56/67/56 40/74/40 6/68/6
f 36/69/36 38/217/38 57/70/57
f 58/71/58 18/79/18 16/72/16
f 59/73/59 4/76/4 40/74/40
f 48/56/48 26/55/26 28/75/28
f 4/76/4 59/73/59 46/77/46
f 49/57/49 20/216/20 18/79/18
f 45/50/45 12/49/12 9/52/9
f 31/61/31 33/65/33 55/66/55
f 61/81/61 43/47/43 42/46/42
f 56/67/56 47/54/47 63/83/63
f 62/82/62 42/46/42 57/70/57
f 47/54/47 48/56/48 66/86/66
f 67/87/67 153/218/153 46/77/46
f 48/56/48 52/60/52 68/88/68
f 52/60/52 53/62/53 69/89/69
f 46/51/46 153/195/153 70/90/70
f 53/62/53 55/66/55 71/91/71
f 59/73/59 56/67/56 64/84/64
f 71/91/71 55/66/55 43/47/43
f 72/92/72 50/58/50 44/48/44
f 60/80/60 70/90/70 74/94/74
f 75/95/75 54/63/54 50/58/50
f 49/57/49 58/71/58 76/96/76
f 58/71/58 54/63/54 75/95/75
f 73/93/73 44/48/44 45/50/45
f 41/42/41 49/57/49 77/97/77
f 22/23/22 24/25/24 79/99/79
f 10/11/10 82/102/82 81/101/81
f 80/100/80 88/108/88 21/22/21
f 13/14/13 83/103/83 82/102/82
f 15/16/15 86/106/86 83/103/83
f 11/12/11 81/101/81 84/104/84
f 17/18/17 93/113/93 86/106/86
f 87/107/87 93/113/93 17/18/17
f 88/108/88 87/107/87 19/20/19
f 1/1/1 11/12/11 85/105/85
f 90/110/90 82/102/82 83/103/83
f 83/103/83 86/106/86 92/112/92
f 92/112/92 86/106/86 93/113/93
f 93/113/93 87/107/87 95/115/95
f 87/107/87 88/108/88 96/116/96
f 80/100/80 79/99/79 97/117/97
f 88/108/88 80/100/80 98/118/98
f 84/104/84 81/101/81 99/119/99
f 92/112/92 94/114/94 101/121/101
f 94/114/94 95/115/95 103/123/103
f 96/116/96 104/124/104 103/123/103
f 98/118/98 97/117/97 104/124/104
f 91/111/91 92/112/92 102/122/102
f 90/110/90 91/111/91 105/125/105
f 99/119/99 90/110/90 106/126/106
f 99/119/99 81/101/81 82/102/82
f 39/127/39 65/85/65 57/70/57
f 2/2/2 89/109/89 107/129/107
f 109/131/109 5/6/5 2/5/2
f 110/133/110 8/9/8 7/8/7
f 112/135/112 108/130/108 107/129/107
f 114/137/114 116/139/116 112/135/112
f 115/138/115 118/141/118 116/139/116
f 115/138/115 119/142/119 117/140/117
f 119/142/119 121/144/121 120/143/120
f 121/144/121 123/146/123 122/145/122
f 123/146/123 127/150/127 124/147/124
f 125/148/125 24/25/24 23/24/23
f 127/150/127 125/148/125 126/149/126
f 128/151/128 27/28/27 8/9/8
f 129/152/129 29/30/29 27/28/27
f 30/31/30 29/30/29 129/152/129
f 32/33/32 30/31/30 130/153/130
f 132/155/132 35/36/35 32/33/32
f 133/156/133 37/38/37 35/36/35
f 134/157/134 39/40/39 37/38/37
f 111/134/111 7/8/7 5/6/5
f 23/43/23 78/98/78 135/158/135
f 136/160/136 133/185/133 132/161/132
f 138/163/138 151/193/151 116/164/116
f 112/166/112 154/196/154 139/167/139
f 140/169/140 150/190/150 128/170/128
f 141/172/141 124/192/124 126/159/126
f 142/173/142 138/163/138 118/165/118
f 143/175/143 152/194/152 130/176/130
f 144/178/144 142/173/142 117/174/117
f 137/162/137 132/161/132 131/180/131
f 146/182/146 140/169/140 110/171/110
f 147/184/147 134/219/134 133/185/133
f 148/186/148 144/178/144 120/179/120
f 149/188/149 146/182/146 111/183/111
f 150/190/150 143/175/143 129/177/129
f 109/189/109 108/220/108 139/191/139
f 141/172/141 148/186/148 122/187/122
f 151/193/151 154/196/154 112/166/112
f 145/181/145 131/180/131 130/176/130
f 61/81/61 62/82/62 136/160/136
f 63/83/63 140/169/140 146/182/146
f 62/82/62 65/85/65 147/184/147
f 66/86/66 150/190/150 140/169/140
f 139/191/139 153/218/153 67/87/67
f 68/88/68 143/175/143 150/190/150
f 69/89/69 152/194/152 143/175/143
f 139/167/139 154/196/154 70/90/70
f 71/91/71 145/181/145 152/194/152
f 64/84/64 146/182/146 149/188/149
f 61/81/61 137/162/137 145/181/145
f 72/92/72 73/93/73 138/163/138
f 74/94/74 70/90/70 154/196/154
f 75/95/75 72/92/72 142/173/142
f 76/96/76 148/186/148 141/172/141
f 75/95/75 144/178/144 148/186/148
f 73/93/73 74/94/74 151/193/151
f 77/97/77 141/172/141 135/158/135
f 79/99/79 24/25/24 125/148/125
f 114/137/114 113/136/113 156/198/156
f 127/150/127 162/204/162 155/197/155
f 115/138/115 114/137/114 157/199/157
f 119/142/119 115/138/115 158/200/158
f 113/136/113 85/105/85 84/104/84
f 121/144/121 119/142/119 159/201/159
f 121/144/121 160/202/160 161/203/161
f 123/146/123 161/203/161 162/204/162
f 107/129/107 89/109/89 85/105/85
f 163/205/163 165/207/165 158/200/158
f 164/206/164 159/201/159 158/200/158
f 164/206/164 167/209/167 160/202/160
f 166/208/166 161/203/161 160/202/160
f 168/210/168 162/204/162 161/203/161
f 97/117/97 79/99/79 155/197/155
f 169/211/169 155/197/155 162/204/162
f 170/212/170 156/198/156 84/104/84
f 164/206/164 102/122/102 101/121/101
f 167/209/167 101/121/101 103/123/103
f 103/123/103 104/124/104 168/210/168
f 104/124/104 97/117/97 169/211/169
f 165/207/165 105/125/105 102/122/102
f 163/205/163 106/126/106 105/125/105
f 170/212/170 100/120/100 106/126/106
f 170/212/170 163/205/163 157/199/157
f 147/184/147 65/85/65 39/127/39
