# Blender v2.79 (sub 0) OBJ File: ''
# www.blender.org
o Layer0_001
v -37.367680 -0.000000 0.689000
v -37.367680 0.000000 -0.689000
v 37.367680 0.000000 -0.689000
v 37.367680 -0.000000 0.689000
v 37.367680 35.433102 0.689006
v 37.367680 35.433102 -0.688994
v -37.367680 35.433102 0.689006
v -37.367680 35.433102 -0.688994
vt 0.000000 0.000000
vt 0.000000 0.000000
vt 0.000000 0.000000
vt 0.000000 0.000000
vt 0.000000 0.000000
vt 0.000000 0.000000
vt 0.000000 0.000000
vt 0.000000 0.000000
vt -4.998400 13.989800
vt -4.009900 13.024400
vt -4.013300 14.003300
vt -4.995000 13.010800
vn 0.0000 -1.0000 -0.0000
vn 1.0000 -0.0000 0.0000
vn -1.0000 -0.0000 0.0000
vn 0.0000 0.0000 -1.0000
vn 0.0000 1.0000 0.0000
vn 0.0000 -0.0000 1.0000
s 1
f 2/1/1 4/2/1 1/3/1
f 4/2/2 6/4/2 5/5/2
f 1/3/3 8/6/3 2/1/3
f 2/1/4 6/4/4 3/7/4
f 7/8/5 6/4/5 8/6/5
f 2/1/1 3/7/1 4/2/1
f 4/2/2 3/7/2 6/4/2
f 1/3/3 7/8/3 8/6/3
f 2/1/4 8/6/4 6/4/4
f 7/8/5 5/5/5 6/4/5
f 4/9/6 7/10/6 1/11/6
f 4/9/6 5/12/6 7/10/6
