# Blender v2.79 (sub 0) OBJ File: ''
# www.blender.org
mtllib wallfront.mtl
o Layer0_001
v 0.476299 -0.122027 -37.370796
v -0.476299 0.122027 37.370796
v -0.901677 -0.119959 -37.362961
v 0.954195 35.552837 37.247932
v -0.423781 35.554905 37.255768
v 0.528818 35.310848 -37.485825
v 0.901677 0.119959 37.362961
v -0.849159 35.312916 -37.477989
vt 0.000000 0.000000
vt 0.000000 0.000000
vt 0.000000 0.000000
vt 0.000000 0.000000
vt 0.000000 0.000000
vt 0.000000 0.000000
vt 0.000000 0.000000
vt 0.000000 0.000000
vt -4.998400 13.989800
vt -4.009900 13.024400
vt -4.013300 14.003300
vt -4.995000 13.010800
vn -0.0015 -1.0000 0.0032
vn 0.0057 0.0032 1.0000
vn -0.0057 -0.0032 -1.0000
vn 1.0000 -0.0015 -0.0057
vn 0.0015 1.0000 -0.0032
vn -1.0000 0.0015 0.0057
usemtl None
s 1
f 1/1/1 2/2/1 3/3/1
f 2/2/2 4/4/2 5/5/2
f 3/3/3 6/6/3 1/1/3
f 1/1/4 4/4/4 7/7/4
f 8/8/5 4/4/5 6/6/5
f 1/1/1 7/7/1 2/2/1
f 2/2/2 7/7/2 4/4/2
f 3/3/3 8/8/3 6/6/3
f 1/1/4 6/6/4 4/4/4
f 8/8/5 5/5/5 4/4/5
f 2/9/6 8/10/6 3/11/6
f 2/9/6 5/12/6 8/10/6
